<?xml version="1.0" encoding="UTF-8"?><svg id="Layer_1" xmlns="http://www.w3.org/2000/svg" xmlns:xlink="http://www.w3.org/1999/xlink" viewBox="0 0 1222.27 1014.54"><defs><style>.cls-1{fill:none;}.cls-2{fill:url(#linear-gradient);}.cls-3{clip-path:url(#clippath);}</style><clipPath id="clippath"><path class="cls-1" d="M712.03,545.21c-56.26-95.91-82.46-142.47-104.77-187.17-20.37,44.7-46.56,90.32-102.83,186.24l-103.8,176.92c-23.28,40.04-58.2,66.11-110.59,66.11s-95.07-27.94-112.53-85.67L12.61,154.12H213.41l61.11,216.97c20.37,69.84,33.95,121.05,43.65,171.34,21.34-43.77,46.56-91.26,91.19-172.27l87.31-156.44c33.95-61.46,66.93-69.84,114.47-69.84s82.46,8.38,116.41,69.84l86.34,157.37c48.5,85.67,70.81,129.43,91.19,171.34,10.67-49.35,25.22-102.43,44.62-171.34l61.11-216.97h195.95l-167.82,547.54c-17.46,57.73-62.08,85.67-112.53,85.67s-86.34-25.14-110.59-66.11l-103.8-175.99Z"/></clipPath><linearGradient id="linear-gradient" x1="-107.73" y1="471" x2="1258.27" y2="471" gradientTransform="translate(24 -16)" gradientUnits="userSpaceOnUse"><stop offset="0" stop-color="#37bf1f"/><stop offset=".84" stop-color="#153d56"/></linearGradient></defs><g class="cls-3"><path d="M425.38,698.1l-119.67-471.7h64.39l55.99,238.65c14,58.79,26.59,117.57,34.99,163.06h1.4c7.7-46.89,22.4-102.88,38.49-163.76l62.99-237.95h63.69l57.39,239.35c13.3,55.99,25.89,111.97,32.89,161.66h1.4c9.8-51.79,23.09-104.28,37.79-163.06l62.29-237.95h62.29l-133.67,471.7h-63.69l-59.49-245.65c-14.7-60.19-24.49-106.38-30.79-153.97h-1.4c-8.4,46.89-18.9,93.08-36.39,153.97l-67.18,245.65h-63.69Z"/><rect class="cls-2" x="-83.73" y="71" width="1366" height="768" transform="translate(1198.55 910) rotate(180)"/></g></svg>