<?xml version="1.0" encoding="utf-8"?>
<!-- Generator: Adobe Illustrator 26.4.1, SVG Export Plug-In . SVG Version: 6.00 Build 0)  -->
<svg version="1.1" id="Layer_1" xmlns="http://www.w3.org/2000/svg" xmlns:xlink="http://www.w3.org/1999/xlink" x="0px" y="0px"
	 viewBox="0 0 1222.3 1014.5" style="enable-background:new 0 0 1222.3 1014.5;" xml:space="preserve">
<style type="text/css">
	.st0{clip-path:url(#SVGID_00000057131787022511728270000000960570733579990168_);}
	.st1{fill:url(#SVGID_00000109022444050938949440000006701107292808037768_);}
</style>
<g>
	<defs>
		<path id="SVGID_1_" d="M713.5,607.1c-56.3-95.9-82.5-142.5-104.8-187.2c-20.4,44.7-46.6,90.3-102.8,186.2L402.1,783.1
			c-23.3,40-58.2,66.1-110.6,66.1s-95.1-27.9-112.5-85.7L14.1,216h200.8L276,433c20.4,69.8,34,121.1,43.6,171.3
			c21.3-43.8,46.6-91.3,91.2-172.3l87.3-156.4c33.9-61.5,66.9-69.8,114.5-69.8s82.5,8.4,116.4,69.8L815.3,433
			c48.5,85.7,70.8,129.4,91.2,171.3c10.7-49.3,25.2-102.4,44.6-171.3l61.1-217h195.9l-167.8,547.5c-17.5,57.7-62.1,85.7-112.5,85.7
			s-86.3-25.1-110.6-66.1L713.5,607.1L713.5,607.1z"/>
	</defs>
	<clipPath id="SVGID_00000046326576101515485690000006321945427173565115_">
		<use xlink:href="#SVGID_1_"  style="overflow:visible;"/>
	</clipPath>
	<g style="clip-path:url(#SVGID_00000046326576101515485690000006321945427173565115_);">
		<path d="M426.8,760L307.2,288.3h64.4l56,238.7c14,58.8,26.6,117.6,35,163.1h1.4c7.7-46.9,22.4-102.9,38.5-163.8l63-237.9h63.7
			l57.4,239.4c13.3,56,25.9,112,32.9,161.7h1.4c9.8-51.8,23.1-104.3,37.8-163.1l62.3-237.9h62.3L749.5,760h-63.7l-59.5-245.6
			c-14.7-60.2-24.5-106.4-30.8-154h-1.4c-8.4,46.9-18.9,93.1-36.4,154L490.5,760L426.8,760L426.8,760z"/>
		
			<linearGradient id="SVGID_00000031888976324340500200000013054710136016655523_" gradientUnits="userSpaceOnUse" x1="-251.18" y1="358.8892" x2="1114.8201" y2="358.8892" gradientTransform="matrix(-1 0 0 1 1032.55 158)">
			<stop  offset="0" style="stop-color:#37BF1F"/>
			<stop  offset="0.84" style="stop-color:#153D56"/>
		</linearGradient>
		
			<rect x="-82.3" y="132.9" style="fill:url(#SVGID_00000031888976324340500200000013054710136016655523_);" width="1366" height="768"/>
	</g>
</g>
</svg>
